{"title":"1 Nenokkadine (2014) Telugu 1080p BluRay H.264 AC3 5.1 Eng Subs-","uid":11555536,"size":5734978914,"categoryP":"video","categoryS":"hd___movies","magnet":"?xt=urn:btih:f68563865e5c8baabde06d5d9f49ed5393c99d6e&amp;dn=1+Nenokkadine+%282014%29+Telugu+1080p+BluRay+H.264+AC3+5.1+Eng+Subs-&amp;tr=udp%3A%2F%2Ftracker.openbittorrent.com%3A80&amp;tr=udp%3A%2F%2Fopen.demonii.com%3A1337&amp;tr=udp%3A%2F%2Ftracker.coppersurfer.tk%3A6969&amp;tr=udp%3A%2F%2Fexodus.desync.com%3A6969","seeders":12,"leechers":10,"uploader":"Anon_up","files":9,"time":1416820782,"description":"1: Nenokkadine\n2014 Film\n9/10-IMDb\n\nA rock star (Mahesh Babu) suffers hallucinations that are tied to the murder of his parents and the discovery of a special variety of rice.\nInitial release: January 10, 2014 (India)\nDirector: Sukumar\nFeatured song: London Babu\nStory by: Hari Prasad Jakka\nMusic composed by: Devi Sri Prasad\n\n\n\n\nTechnical Info For Nerds/Geeks:\n\nGeneral\nUnique ID : 197033504342629512223946332974722691133 (0x943B45C98375EB1B8B381D1232B1B03D)\nComplete name : 1 Nenokkadine (2014) - BluRay - 1080p - AC3 - Eng sub - LeOnRocks.mkv\nFormat : Matroska\nFormat version : Version 2\nFile size : 5.32 GiB\nDuration : 2h 44mn\nOverall bit rate : 4 625 Kbps\nEncoded date : UTC 2014-11-12 09:23:23\nWriting application : mkvmerge v5.7.0 ('The Whirlwind') built on Jul 8 2012 20:08:51\nWriting library : libebml v1.2.3 + libmatroska v1.3.0\n\nVideo\nID : 1\nFormat : AVC\nFormat/Info : Advanced Video Codec\nFormat profile : &lt;a class=&quot;__cf_email__&quot; href=&quot;/cdn-cgi/l/email-protection&quot; data-cfemail=&quot;c38baaa4ab838ff7edf3&quot;&gt;[email&amp;#160;protected]&lt;/a&gt;&lt;script cf-hash='f9e31' type=&quot;text/javascript&quot;&gt;\n/* &lt;![CDATA[ */!function(){try{var t=&quot;currentScript&quot;in document?document.currentScript:function(){for(var t=document.getElementsByTagName(&quot;script&quot;),e=t.length;e--;)if(t[e].getAttribute(&quot;cf-hash&quot;))return t[e]}();if(t&amp;&amp;t.previousSibling){var e,r,n,i,c=t.previousSibling,a=c.getAttribute(&quot;data-cfemail&quot;);if(a){for(e=&quot;&quot;,r=parseInt(a.substr(0,2),16),n=2;a.length-n;n+=2)i=parseInt(a.substr(n,2),16)^r,e+=String.fromCharCode(i);e=document.createTextNode(e),c.parentNode.replaceChild(e,c)}}}catch(u){}}();/* ]]&gt; */&lt;/script&gt;\nFormat settings, CABAC : Yes\nFormat settings, ReFrames : 5 frames\nMuxing mode : Header stripping\nCodec ID : V_MPEG4/ISO/AVC\nDuration : 2h 44mn\nBit rate : 4 149 Kbps\nWidth : 1 912 pixels\nHeight : 800 pixels\nDisplay aspect ratio : 2.40:1\nFrame rate mode : Constant\nFrame rate : 24.000 fps\nColor space : YUV\nChroma subsampling : 4:2:0\nBit depth : 8 bits\nScan type : Progressive\nBits/(Pixel*Frame) : 0.113\nStream size : 4.77 GiB (90%)\nLanguage : English\nDefault : Yes\nForced : No\nColor primaries : BT.709\nTransfer characteristics : BT.709\nMatrix coefficients : BT.709\n\nAudio\nID : 2\nFormat : AC-3\nFormat/Info : Audio Coding 3\nMode extension : CM (complete main)\nFormat settings, Endianness : Big\nMuxing mode : Header stripping\nCodec ID : A_AC3\nDuration : 2h 44mn\nBit rate mode : Constant\nBit rate : 384 Kbps\nChannel(s) : 6 channels\nChannel positions : Front: L C R, Side: L R, LFE\nSampling rate : 48.0 KHz\nBit depth : 16 bits\nCompression mode : Lossy\nStream size : 452 MiB (8%)\nLanguage : Telugu\nDefault : Yes\nForced : No\n\nText\nID : 3\nFormat : UTF-8\nCodec ID : S_TEXT/UTF8\nCodec ID/Info : UTF-8 Plain Text\nDefault : Yes\nForced : No\nRipper : LeOnRocKs\n\nThis torrent is ideal for","torrent":{"xt":"urn:btih:f68563865e5c8baabde06d5d9f49ed5393c99d6e","amp;dn":"1+Nenokkadine+%282014%29+Telugu+1080p+BluRay+H.264+AC3+5.1+Eng+Subs-","amp;tr":["udp%3A%2F%2Ftracker.openbittorrent.com%3A80","udp%3A%2F%2Fopen.demonii.com%3A1337","udp%3A%2F%2Ftracker.coppersurfer.tk%3A6969","udp%3A%2F%2Fexodus.desync.com%3A6969"],"infoHash":"f68563865e5c8baabde06d5d9f49ed5393c99d6e","infoHashBuffer":{"type":"Buffer","data":[246,133,99,134,94,92,139,170,189,224,109,93,159,73,237,83,147,201,157,110]},"announce":[],"urlList":[]}}